<?xml version="1.0" standalone="no"?>
<!DOCTYPE svg PUBLIC "-//W3C//DTD SVG 20010904//EN"
 "http://www.w3.org/TR/2001/REC-SVG-20010904/DTD/svg10.dtd">
<svg version="1.0" xmlns="http://www.w3.org/2000/svg"
 height="1em" viewBox="0 0 1793.000000 1758.000000"
 preserveAspectRatio="xMidYMid meet">

<g transform="translate(0.000000,1758.000000) scale(0.100000,-0.100000)"
fill="curentColor" stroke="none">
<path d="M8500 17564 c-657 -44 -1134 -113 -1680 -245 -1791 -431 -3417 -1411
-4631 -2791 -1805 -2051 -2540 -4788 -2002 -7458 249 -1239 789 -2443 1556
-3467 431 -574 933 -1100 1482 -1551 1389 -1140 3114 -1846 4905 -2006 547
-49 1123 -49 1670 0 2686 240 5130 1680 6632 3904 1309 1938 1776 4304 1303
6600 -222 1078 -666 2131 -1288 3059 -1096 1635 -2714 2867 -4590 3495 -690
231 -1396 376 -2157 442 -173 15 -1045 28 -1200 18z m1075 -2369 c1135 -108
2158 -465 3090 -1080 1554 -1023 2598 -2666 2839 -4467 44 -331 51 -443 51
-868 -1 -432 -10 -573 -60 -915 -149 -1012 -554 -1991 -1166 -2822 -199 -270
-366 -461 -648 -744 -528 -527 -1051 -904 -1719 -1238 -1745 -873 -3841 -934
-5640 -165 -634 271 -1212 632 -1742 1088 -140 120 -456 432 -589 581 -777
870 -1293 1905 -1510 3025 -73 382 -101 659 -108 1090 -11 673 58 1217 232
1830 543 1915 1979 3486 3872 4239 668 266 1362 417 2128 465 152 9 809 -3
970 -19z"/>
<path d="M8905 14140 c-902 -62 -1653 -298 -2255 -711 -228 -156 -502 -409
-670 -619 -388 -485 -625 -1080 -695 -1742 -74 -705 24 -1425 268 -1963 239
-529 697 -1015 1243 -1319 429 -240 1059 -414 2224 -616 270 -47 667 -148 798
-202 40 -17 87 -42 103 -55 26 -22 29 -31 29 -81 0 -92 -15 -127 -66 -163
-101 -69 -232 -114 -439 -150 -172 -30 -609 -38 -815 -15 -469 54 -864 205
-1214 464 -50 38 -280 231 -510 430 -231 199 -423 361 -428 360 -6 -2 -1999
-2445 -2013 -2469 -6 -8 822 -708 970 -820 828 -630 1765 -982 2920 -1096 258
-25 1003 -25 1255 0 1015 103 1791 397 2400 908 656 551 1037 1303 1121 2209
24 264 12 698 -27 975 -113 803 -463 1424 -1088 1934 -487 397 -1187 659
-2402 900 -620 123 -1000 223 -1108 291 l-49 31 6 80 c6 92 18 114 83 157 144
96 422 152 753 152 183 0 290 -13 457 -55 226 -57 475 -168 718 -320 57 -36
312 -218 567 -405 438 -321 464 -339 480 -323 22 24 1840 2561 1840 2568 0 9
-856 624 -1016 730 -785 519 -1609 822 -2505 921 -171 18 -739 27 -935 14z"/>
</g>
</svg>
